<?xml version="1.0" encoding="utf-8"?>
<!-- Generator: Adobe Illustrator 19.2.1, SVG Export Plug-In . SVG Version: 6.00 Build 0)  -->
<svg version="1.1" xmlns="http://www.w3.org/2000/svg" xmlns:xlink="http://www.w3.org/1999/xlink" x="0px" y="0px"
	 viewBox="0 0 300 97" style="enable-background:new 0 0 300 97;" xml:space="preserve">
<style type="text/css">
	.st0{fill:#5F455E;}
	.st1{display:none;}
	.st2{display:inline;}
	.st3{fill:#FFFFFF;}
	.st4{font-family:'MyriadPro-Semibold';}
	.st5{font-size:70.2646px;}
	.st6{letter-spacing:-5;}
	.st7{letter-spacing:-3;}
	.st8{letter-spacing:-4;}
</style>
<g id="bg">
	<rect width="300" height="97"/>
	<rect class="st0" width="300" height="97"/>
</g>
<g id="Amazon" class="st1">
	<g class="st2">
		<path class="st3" d="M28.9,4.9C30,5.1,31,5.3,32.1,5.5c2.1,0.4,4,1.1,5.8,2.2c3.6,2.2,5.5,5.4,5.9,9.6c0.2,1.9,0.2,3.8,0.2,5.7
			c0,5.1,0,10.3,0,15.4c0,2.7,0.7,5.2,2.4,7.3c0.4,0.5,0.8,1,1.1,1.5c0.6,1,0.5,1.7-0.4,2.4c-2,1.8-4.1,3.5-6.1,5.3
			c-1.4,1.2-2.1,1.2-3.4,0c-1.3-1.2-2.5-2.5-3.5-4c-0.3-0.4-0.6-0.9-0.9-1.3c-1,0.9-1.9,1.7-2.8,2.5c-3.9,3.4-8.5,4.2-13.5,3.9
			c-2.9-0.2-5.5-1.1-7.7-3c-2.5-2.2-3.7-5-4.2-8.2c0-0.2,0.1-0.4-0.2-0.4c0-1.5,0-3,0-4.5c0.2-0.1,0.1-0.2,0.2-0.4
			c0.4-3,1.6-5.7,3.6-7.9c3-3.3,6.8-4.9,11.1-5.8c3.6-0.8,7.3-1.1,11-1.4c0.5,0,0.6-0.2,0.6-0.6c0-1.2,0-2.5-0.1-3.7
			c-0.1-2.9-1.6-4.8-4.2-5.5c-0.9-0.2-1.8-0.3-2.7-0.2c-2.7,0.3-4.8,1.4-5.9,4c-0.2,0.5-0.3,1.1-0.5,1.7c-0.3,1-0.9,1.4-1.9,1.3
			c-2.7-0.3-5.5-0.6-8.2-0.9c-1-0.1-1.6-0.9-1.5-1.9c0.5-2.8,1.6-5.3,3.5-7.5c3-3.4,6.9-5.1,11.2-5.9c0.9-0.2,1.8-0.1,2.7-0.4
			C25.5,4.9,27.2,4.9,28.9,4.9z M31.4,34.8c0-0.9,0-1.8,0-2.7c0-0.4-0.1-0.5-0.5-0.5c-2.2,0.1-4.3,0.2-6.4,0.8
			c-3,0.9-5.2,2.5-6.1,5.7c-0.3,1.3-0.3,2.5-0.2,3.8c0.4,4.4,4.6,6.6,8.5,4.3c1.8-1,2.9-2.6,3.7-4.4C31.4,39.6,31.5,37.2,31.4,34.8z
			"/>
		<path class="st3" d="M146.7,4.9c1.1,0.2,2.1,0.4,3.2,0.6c1.9,0.4,3.7,1,5.4,2c3.9,2.2,5.9,5.6,6.4,10c0.2,1.9,0.2,3.7,0.2,5.6
			c0,5.1,0,10.1,0,15.2c0,2.8,0.7,5.4,2.5,7.6c0.4,0.5,0.7,1,1.1,1.5c0.6,1,0.5,1.6-0.4,2.4c-2.1,1.8-4.1,3.6-6.2,5.4
			c-1.3,1.1-2,1.1-3.3,0c-1.3-1.1-2.4-2.4-3.4-3.8c-0.3-0.5-0.7-1-1-1.5c-1.1,1.1-2.2,2.1-3.4,3.1c-3.7,2.9-8,3.7-12.6,3.4
			c-2.8-0.2-5.3-1-7.5-2.8c-2.5-2-3.9-4.8-4.4-7.9c-0.6-3.8-0.3-7.4,1.5-10.8c2.1-4.1,5.6-6.4,9.8-7.8c3.3-1.1,6.7-1.5,10.1-1.9
			c1.5-0.2,2.9-0.3,4.4-0.5c0.3,0,0.5-0.1,0.4-0.4c0-1.7,0.1-3.4-0.2-5.1c-0.5-2.6-2.4-4.3-5.1-4.5c-1.5-0.1-3,0-4.4,0.7
			c-1.8,0.9-3,2.3-3.5,4.2c-0.1,0.3-0.2,0.7-0.3,1c-0.3,0.8-0.9,1.1-1.7,1c-2.8-0.3-5.5-0.6-8.3-0.9c-1.1-0.1-1.6-1-1.4-2.1
			c1.3-6.1,5-10,10.8-12.1c2-0.7,4.1-1.1,6.3-1.3c0.1,0,0.2,0,0.3-0.1C143.3,4.9,145,4.9,146.7,4.9z M149.2,34.7c0-0.8,0-1.7,0-2.5
			c0-0.4-0.1-0.5-0.5-0.5c-2.2,0.1-4.4,0.2-6.6,0.9c-2.9,0.9-5.1,2.5-5.9,5.6c-0.4,1.4-0.4,2.8-0.2,4.2c0.4,2.6,2,4.4,4.3,4.8
			c1.8,0.3,3.5-0.2,5-1.3c1.6-1.2,2.6-2.9,3.2-4.7C149.1,39,149.2,36.8,149.2,34.7z"/>
		<path class="st3" d="M66.2,13.8c2.3-5.6,6.3-8.6,12.4-8.4c5.7,0.1,9,3.4,11.1,8.3c0.3,0,0.3-0.2,0.3-0.4c2.4-5.6,7.8-8.7,13.9-7.8
			c3.8,0.5,6.9,2.2,9,5.5c1.5,2.3,1.9,4.9,1.9,7.5c0,8.8,0,17.7,0,26.5c0,2.9,0,5.7,0,8.6c0,1.4-0.6,2-2,2.1c-2.8,0-5.6,0-8.3,0
			c-1.4,0-2-0.6-2-2c0-9.7,0-19.4,0-29.1c0-1.4,0-2.8-0.4-4.2c-0.6-2.1-2-3.2-4.2-3.4c-3.5-0.3-6.3,1.9-6.8,5.9
			c-0.2,1.6-0.3,3.3-0.3,4.9c0,8.6,0,17.2,0,25.7c0,1.6-0.6,2.1-2.1,2.1c-2.7,0-5.4,0-8.1,0c-1.5,0-2.1-0.6-2.1-2.1
			c0-9.3,0-18.6,0-27.9c0-1.7-0.1-3.4-0.6-5c-0.7-2.4-2.2-3.6-4.5-3.8c-2.6-0.2-4.5,0.9-5.5,3.1c-1,2.1-1.1,4.4-1.1,6.7
			c-0.1,1.6,0,3.2,0,4.9c0,7.3,0,14.7,0,22c0,1.5-0.6,2.1-2.1,2.1c-2.7,0-5.5,0-8.2,0c-1.4,0-2-0.6-2-2c0-15.1,0-30.1,0-45.2
			c0-1.5,0.6-2.1,2.1-2.1c2.6,0,5.1,0,7.7,0c1.4,0,2,0.6,2,2C66.2,10.1,66.2,12,66.2,13.8z"/>
		<path class="st3" d="M270,14.8c0.6-1.4,1.2-2.6,1.9-3.8c2.8-4.6,7-6.1,12.1-5.6c4,0.4,7.1,2.3,9.1,5.9c1.1,1.9,1.5,4.1,1.8,6.3
			c0.2,1.3,0.1,2.6,0.1,3.8c0,10.8,0,21.7,0,32.5c0,1-0.5,1.6-1.5,1.6c-3,0-6,0-9.1,0c-1.1,0-1.6-0.7-1.6-1.9c0-9.1,0-18.2,0-27.3
			c0-1.8-0.1-3.6-0.5-5.4c-0.5-2.1-1.6-3.7-3.9-4.1c-2.5-0.5-4.5,0.5-5.9,2.7c-1.1,1.7-1.5,3.6-1.7,5.5c-0.2,1.6-0.2,3.2-0.2,4.8
			c0,7.8,0,15.7,0,23.5c0,1.7-0.6,2.3-2.2,2.3c-2.7,0-5.3,0-8,0c-1.5,0-2.1-0.6-2.1-2.2c0-15,0-30,0-45c0-1.5,0.6-2.1,2.1-2.1
			c2.6,0,5.1,0,7.7,0c1.1,0,2,0.7,2,2c-0.1,2.1,0,4.1,0,6.2C269.9,14.5,269.9,14.5,270,14.8z"/>
		<path class="st3" d="M210.8,30.8c0.1-5.3,0.9-10.4,3.4-15.1c2.4-4.7,6-8.1,11.2-9.6c8.6-2.4,18,0.3,22.9,9.8
			c1.9,3.7,2.9,7.7,3.2,11.8c0.4,4.5,0.1,8.9-1.2,13.2c-1.6,5.2-4.3,9.6-9,12.7c-7.8,5.1-20.5,4.1-26.5-6.6
			c-2.1-3.6-3.2-7.6-3.6-11.7C210.9,33.8,210.8,32.3,210.8,30.8z M238.3,31.4c0-2.3-0.1-4.5-0.3-6.6c-0.2-2.2-0.5-4.5-1.4-6.5
			c-0.7-1.6-1.7-2.7-3.4-3.2c-3.2-0.9-6,0.3-7.4,3.3c-0.9,1.9-1.3,4-1.4,6.1c-0.3,4.6-0.4,9.3,0.3,13.9c0.3,2.3,0.9,4.5,2.2,6.4
			c2.1,3.1,6.4,2.7,8.4,0.5c1.1-1.2,1.7-2.6,2.1-4.1C238.2,38,238.2,34.6,238.3,31.4z"/>
		<path class="st3" d="M122.4,92c-3.5-0.1-7,0.1-10.5-0.2c-7.6-0.7-15.1-2.1-22.4-4.3c-16.1-4.8-30.3-12.9-42.8-24.1
			c-0.2-0.2-0.4-0.4-0.6-0.6c-0.3-0.5-0.4-1,0-1.5c0.3-0.5,0.8-0.6,1.3-0.5c0.4,0,0.7,0.2,1.1,0.4c8.9,5.2,18.3,9.3,28.1,12.5
			c7.9,2.6,15.9,4.5,24.1,5.7c8.8,1.4,17.6,2,26.5,1.8c6.5-0.1,12.9-0.7,19.3-1.7c11.1-1.7,21.9-4.6,32.4-8.6c1.3-0.5,2.5-1,3.8-1.5
			c0.8-0.3,1.6-0.4,2.4,0c1.3,0.6,1.7,2,0.9,3.1c-0.3,0.4-0.7,0.8-1.2,1.1c-7.5,5.5-15.8,9.4-24.6,12.4c-7.4,2.6-15,4.3-22.8,5.4
			C132.3,92,127.4,92.2,122.4,92z"/>
		<path class="st3" d="M188.1,39.4c1.5,0,3,0,4.4,0.1c4.3,0.3,8.4,1.3,12.2,3.4c1.3,0.7,1.8,1.7,1.8,3.1c0,2.1,0,4.2,0,6.3
			c0,0.6-0.1,1.1-0.5,1.5c-0.5,0.6-1.1,0.7-1.9,0.3c-2.7-1.4-5.6-2.4-8.6-3c-7.6-1.5-14.9-0.6-21.8,2.9c-1.6,0.8-2.6,0.2-2.6-1.6
			c0-2.3,0-4.6,0-6.9c0-1.6,0.5-3.1,1.4-4.5c5.6-8.1,11.3-16.1,16.9-24.2c0.1-0.2,0.3-0.3,0.3-0.7c-0.2,0-0.5,0-0.7,0
			c-4.7,0-9.4,0-14.1,0c-1.6,0-2.2-0.5-2.2-2.2c0-1.9,0-3.7,0-5.6c0-1.6,0.5-2.1,2.1-2.1c9.6,0,19.1,0,28.7,0c1.5,0,2.1,0.5,2.1,2.1
			c0,1.4-0.1,2.8,0,4.1c0.1,1.3-0.3,2.5-1.1,3.5c-1.7,2.4-3.3,4.8-5,7.2c-3.7,5.2-7.3,10.5-11,15.7C188.4,39,188.3,39.2,188.1,39.4z
			"/>
		<path class="st3" d="M189,57.6c2.6,0,5.2,0.2,7.7,0.9c2.5,0.7,3,1.3,3,3.9c0,5.2-1.5,9.9-3.7,14.5c-1.5,3.1-3.5,5.9-6.1,8.2
			c-0.3,0.3-0.7,0.6-1.1,0.7c-0.4,0.2-0.9,0.3-1.2-0.1c-0.4-0.3-0.3-0.8-0.2-1.2c0.5-1.2,1-2.5,1.4-3.7c1.3-3.5,2.6-7,3.3-10.7
			c0.2-1.1,0.3-2.2,0.3-3.4c-0.1-1.3-0.7-2.1-1.9-2.5c-1.4-0.5-2.9-0.6-4.4-0.7c-4.3-0.1-8.5,0.3-12.7,0.8c-0.5,0.1-0.9,0.1-1.4,0.1
			c-0.4,0-0.9,0-1.1-0.5c-0.2-0.5,0-0.8,0.3-1.2c0.2-0.3,0.6-0.5,0.9-0.8c3.5-2.4,7.5-3.6,11.7-4.2C185.6,57.7,187.3,57.6,189,57.6z
			"/>
	</g>
</g>
<g id="Spotify" class="st1">
	<g id="cirgle" class="st2">
		<circle class="st3" cx="46.8" cy="47.3" r="44"/>
		<path class="st0" d="M40.3,26.4C33,26.3,25.8,27.1,18.7,29c-3.3,0.9-4.7,3-3.9,5.6c0.8,2.7,3,3.7,6.3,2.8
			c10.9-2.9,22-2.9,33.1-1.2c7,1.1,13.7,3.1,20,6.6c1.8,1,3.6,1.2,5.3-0.1c1.3-1,1.9-2.5,1.6-4.1c-0.3-1.8-1.6-2.8-3.1-3.6
			C66.1,28.6,53.4,26.6,40.3,26.4z M37.2,42.4c-3.9,0.1-9.7,0.6-15.3,2.2c-3.3,0.9-4.6,2.5-3.9,4.9c0.6,2.4,2.5,3.1,5.8,2.2
			c9.6-2.6,19.3-2.5,28.9-0.4c5.5,1.2,10.7,3.1,15.6,5.9c2.2,1.3,4.3,1.4,5.6-1c1.2-2.3,0.2-4.2-2.1-5.3c-1-0.5-2-1.1-3-1.6
			C59.4,44.5,49.5,42.5,37.2,42.4z M38.4,57.6c-4.8-0.1-10.4,0.8-16,2c-1.9,0.4-3,1.5-2.6,3.5c0.4,2.1,1.9,2.5,3.8,2.2
			c0.9-0.2,1.8-0.4,2.7-0.5c12.7-2.4,25.2-2,36.8,4.5c1.9,1,3.8,1.8,5.1-0.6c1.3-2.3-0.5-3.6-2.3-4.6C57.7,59.5,48.8,57.6,38.4,57.6
			z"/>
	</g>
	<text transform="matrix(1 0 0 1 101.7991 72.295)" class="st2"><tspan x="0" y="0" class="st3 st4 st5 st6">S</tspan><tspan x="30.6" y="0" class="st3 st4 st5 st7">poti</tspan><tspan x="141.9" y="0" class="st3 st4 st5 st8">f</tspan><tspan x="159.9" y="0" class="st3 st4 st5 st7">y</tspan></text>
</g>
<g id="iTunes">
	<path class="st3" d="M77.1,67.8c-2,4.4-2.9,6.3-5.4,10.2c-3.5,5.4-8.5,12.1-14.7,12.2c-5.5,0.1-6.9-3.6-14.4-3.5
		c-7.5,0-9,3.6-14.5,3.5c-6.2-0.1-10.9-6.1-14.4-11.5C3.7,63.6,2.7,45.9,8.8,36.5c4.3-6.7,11.2-10.6,17.6-10.6
		c6.6,0,10.7,3.6,16.1,3.6c5.3,0,8.5-3.6,16-3.6c5.7,0,11.8,3.1,16.1,8.5C60.5,42.2,62.8,62.4,77.1,67.8L77.1,67.8z"/>
	<path class="st3" d="M52.8,19.9c2.8-3.5,4.8-8.5,4.1-13.6c-4.5,0.3-9.8,3.2-12.8,6.9c-2.8,3.4-5.1,8.4-4.2,13.3
		C44.7,26.6,49.8,23.7,52.8,19.9z"/>
	<g>
		<path class="st3" d="M102.2,43.9c0,3.1-2.3,5.5-6,5.5c-3.5,0-5.8-2.5-5.7-5.5c-0.1-3.2,2.3-5.6,5.8-5.6S102.1,40.7,102.2,43.9z
			 M90.8,89.3V53.8h11.1v35.6H90.8z M120.5,49.6h-13.2v-9.3h37.7v9.3h-13.4v39.7h-11.1L120.5,49.6z M180.2,77.9
			c0,4.7,0.1,8.4,0.3,11.4h-9.6l-0.5-5h-0.2c-1.4,2.2-4.7,5.8-11.1,5.8c-7.2,0-12.5-4.5-12.5-15.5V53.8h11.1v19.1
			c0,5.2,1.7,8.3,5.5,8.3c3.1,0,4.8-2.1,5.5-3.9c0.3-0.7,0.4-1.5,0.4-2.4V53.8h11.1L180.2,77.9L180.2,77.9L180.2,77.9z M189.1,65.1
			c0-4.4-0.1-8.2-0.3-11.3h9.6l0.5,4.9h0.2c1.5-2.3,5.1-5.7,11-5.7c7.3,0,12.7,4.8,12.7,15.3v21.1h-11.1V69.6c0-4.6-1.6-7.7-5.6-7.7
			c-3.1,0-4.9,2.1-5.6,4.1c-0.3,0.7-0.4,1.7-0.4,2.8v20.5h-11.1L189.1,65.1L189.1,65.1L189.1,65.1z M240.2,75.1
			c0.4,4.6,4.9,6.8,10,6.8c3.8,0,6.8-0.5,9.8-1.5l1.5,7.5c-3.6,1.5-8.1,2.3-12.9,2.3c-12.1,0-19-7.1-19-18.2c0-9,5.6-19,18-19
			c11.5,0,15.9,8.9,15.9,17.8c0,1.9-0.2,3.6-0.4,4.4L240.2,75.1L240.2,75.1z M253.2,67.5c0-2.7-1.2-7.2-6.3-7.2
			c-4.7,0-6.5,4.2-6.8,7.2H253.2z M270,79.7c2,1.2,6.3,2.7,9.5,2.7c3.3,0,4.7-1.2,4.7-3c0-1.8-1.1-2.7-5.2-4.1
			c-7.3-2.5-10.2-6.5-10.1-10.6c0-6.7,5.7-11.7,14.5-11.7c4.1,0,7.9,0.9,10,2l-2,7.6c-1.6-0.9-4.7-2-7.7-2c-2.7,0-4.2,1.1-4.2,2.9
			c0,1.7,1.4,2.5,5.7,4.1c6.8,2.3,9.6,5.7,9.7,11c0,6.6-5.2,11.6-15.4,11.6c-4.7,0-8.8-1.1-11.5-2.6L270,79.7L270,79.7z"/>
	</g>
</g>
<g id="CDbaby" class="st1">
	<g class="st2">
		<path class="st3" d="M110.1,42.5c-0.2-1.7-0.3-3.3-0.5-4.9c-0.4-4-0.8-8-1.1-12c-0.2-1.7-0.3-3.5-0.5-5.2c0-0.4,0-0.5,0.4-0.5
			c3.8,0,7.6,0,11.4,0c0.5,0,0.5,0.2,0.5,0.6c0,4.7,0,9.5,0,14.2c0,12.5,0,24.9,0,37.4c0,0.6-0.2,0.7-0.8,0.7c-2.5,0-5,0-7.6,0
			c-0.7,0-0.8-0.2-0.8-0.8c0.1-1.9,0.2-3.7,0.5-5.6c0-0.1,0-0.3,0-0.6c-0.6,1.1-1.2,2-1.9,2.7c-2.5,2.7-5.6,4.2-9.2,4.8
			c-5.8,0.9-10.8-0.6-15-4.7c-3.1-3-4.9-6.7-5.6-10.9c-0.8-4.5-0.3-9,1.7-13.2c3.3-6.6,8.8-9.7,16.2-9.5c2.5,0.1,5,0.6,7.2,1.9
			c2.1,1.2,3.7,2.9,4.6,5.1C109.9,42.3,109.9,42.5,110.1,42.5z M108.4,54.2c-0.1-1.9-0.2-3.7-0.8-5.6c-1.4-4.5-5.1-5.8-8.8-5.2
			c-2.6,0.5-4,2.4-4.8,4.7c-1.1,3.3-1.1,6.7-0.4,10c0.3,1.7,1,3.3,2.3,4.5c1.8,1.7,4,1.9,6.3,1.6c2.8-0.4,4.5-1.9,5.3-4.6
			C108.2,58,108.3,56.1,108.4,54.2z"/>
		<path class="st3" d="M133.3,66.2c0.2,2,0.4,3.9,0.4,5.9c0,0.7-0.2,0.8-0.8,0.8c-2.5,0-5.1,0-7.6,0c-0.4,0-0.6-0.1-0.6-0.6
			c0-17.3,0-34.6,0-51.8c0-0.4,0.1-0.6,0.5-0.5c3.8,0,7.5,0,11.3,0c0.4,0,0.5,0.1,0.4,0.5c-0.6,6-1.1,11.9-1.6,17.9
			c-0.1,1.4-0.3,2.8-0.4,4.2c0.1,0,0.1,0,0.1,0c1.5-3.6,4.2-5.7,7.9-6.6c5.6-1.4,10.9-0.7,15.5,2.9c3.5,2.8,5.5,6.5,6.3,10.8
			c1,5.5,0.3,10.8-2.7,15.7c-2.9,4.6-6.9,7.5-12.4,8.3c-5.4,0.7-10.2-0.6-14.2-4.4C134.6,68.2,133.9,67.2,133.3,66.2z M151.8,54.5
			c0-2.8-0.2-5.1-1.2-7.3c-0.8-1.8-2.1-3.2-4-3.7c-3.1-0.8-7.5,0.1-9,4.7c-1.2,3.6-1.2,7.4-0.3,11.1c0.7,2.9,2.6,4.6,5.6,5
			c3.9,0.6,6.9-1.1,8.2-4.8C151.6,57.8,151.8,56,151.8,54.5z"/>
		<path class="st3" d="M213.5,66.2c0.3,2,0.5,4.1,0.5,6.1c0,0.4-0.1,0.5-0.5,0.5c-2.7,0-5.3,0-8,0c-0.4,0-0.5-0.1-0.5-0.5
			c0-17.3,0-34.6,0-51.9c0-0.4,0.1-0.5,0.5-0.5c3.7,0,7.4,0,11.2,0c0.4,0,0.6,0.1,0.5,0.6c-0.4,4.2-0.8,8.4-1.1,12.5
			c-0.3,3.1-0.6,6.2-0.8,9.3c0,0.1-0.1,0.2,0,0.4c0-0.1,0-0.2,0-0.3c0.7-1.3,1.4-2.7,2.6-3.7c2.1-1.9,4.5-2.9,7.2-3.3
			c4.4-0.6,8.5-0.1,12.3,2.4c4,2.6,6.4,6.3,7.4,10.8c1.4,6,0.7,11.8-2.7,17c-2.9,4.4-6.9,7.2-12.1,7.9c-5.9,0.7-11.2-0.8-15.2-5.5
			C214.3,67.4,214,66.8,213.5,66.2c0.1-0.1,0-0.2,0-0.3C213.4,66,213.4,66.1,213.5,66.2z M232.1,53.5c-0.1-1.5-0.2-3.1-0.6-4.7
			c-0.6-2-1.5-3.7-3.3-4.8c-3.7-2.1-8.7-0.2-10.2,4c-1.4,3.7-1.3,7.6-0.4,11.4c0.7,2.9,2.6,4.6,5.5,4.9c4,0.5,6.9-1,8.2-4.9
			C231.9,57.6,232.1,55.6,232.1,53.5z"/>
		<path class="st3" d="M241.1,35.8c2.9-0.4,5.6-0.6,8.4-0.3c1.3,0.2,2.5,0.4,3.7,0.9c2.3,0.9,4.1,2.4,5.3,4.5
			c2.2,3.7,3.8,7.7,5.2,11.7c0.9,2.5,1.7,5.1,2.5,7.7c0,0.1,0.1,0.2,0.2,0.5c0.8-1.8,1.3-3.7,1.7-5.6c0.8-3.9,1-7.8,1.1-11.7
			c0.1-2.3,0.1-4.6,0.1-6.9c0-0.4,0.1-0.5,0.5-0.5c3.8,0,7.6,0,11.4,0c0.3,0,0.5,0,0.5,0.4c-0.1,10.6-1.6,20.9-5.7,30.8
			c-2,4.7-4.6,9-8.1,12.7c-3.5,3.6-7.5,6.2-12.5,7c-3.7,0.6-7.4,0.4-10.8-1.5c-3.1-1.7-4.6-4.5-4.8-8.1c-0.1-2,0.1-3.9,1-5.7
			c1.5-3,4.5-4.4,8.1-3.9c2.8,0.4,5.4,3,5.9,6c0.5,3.6-1.4,6.7-4.4,7.6c-0.5,0.1-0.9,0.2-1.4,0.2c-0.2,0-0.5,0-0.6,0.3
			c0,0.3,0.2,0.4,0.4,0.6c0.9,0.5,1.8,0.6,2.8,0.5c4.9-0.7,9.1-4.6,10.4-9.5c0.3-1,0.4-2.1,0.5-3.2c0-0.4-0.1-0.6-0.3-0.9
			c-6.9-11-13.7-22.1-20.6-33.2C241.3,36.3,241.2,36.1,241.1,35.8z"/>
		<path class="st3" d="M202,58.2c0.1,3.9,0.2,7.8,0.5,11.7c0.1,0.9,0.1,1.7,0.2,2.6c0,0.2,0,0.4-0.3,0.4c-1.7,0-3.5-0.1-5.2-0.6
			c-2.8-0.9-4.4-2.9-4.7-5.9c-0.1-1.6-0.1-3.2,0.1-4.8c0-0.2,0.3-0.5-0.2-0.6c-0.5,0-0.4,0.3-0.4,0.6c-0.5,3.5-1.8,6.6-4.4,9
			c-2.7,2.4-5.9,3.4-9.4,3.2c-3.1-0.2-5.9-1.2-8.3-3.2c-4.4-3.6-5.3-10.9-1.2-15.1c2-2.1,4.5-3.2,7.2-4c3.8-1,7.7-1.1,11.6-0.8
			c1.6,0.1,1.6,0.2,1.6-1.4c0-0.7,0-1.4-0.1-2.2c-0.1-1.5-0.9-2.5-2.3-3c-1.1-0.5-2.3-0.6-3.5-0.4c-1.8,0.2-2.9,1.4-3.2,3.5
			c0,0.3-0.1,0.5-0.1,0.8c-0.1,1-0.1,1-1.2,1c-3.4,0-6.8,0-10.2,0c-0.8,0-0.9-0.3-1-0.9c-0.7-5.7,1.7-9.8,7-12
			c3.8-1.6,7.8-2,11.8-1.7c3.3,0.2,6.5,0.9,9.4,2.5c4,2.2,6,5.6,6,10.2c0,3.7,0,7.4,0,11.1C201.9,58.2,201.9,58.2,202,58.2z
			 M186.2,55.1c-1.1,0-1.9,0-2.7,0.2c-1.9,0.4-3.6,1.2-4.4,3.1c-1.1,2.5,0,4.9,2.6,5.4c2.3,0.5,4.6-0.5,5.8-2.6
			c1.1-1.7,1.4-3.6,1.5-5.6c0-0.3-0.1-0.4-0.4-0.4C187.7,55.2,186.8,55.2,186.2,55.1z"/>
		<path class="st3" d="M65.1,40.5c-3.4,0.2-6,1.5-7.8,4.2c-2.8,4.1-2.7,11,1,15c1.9,2.1,4.3,3.2,7.2,3.2c4,0,7.7-1.1,11-3.5
			c0.5-0.3,0.9-0.7,1.4-1.1c0.8,2,1.5,4,2.3,5.9c0.3,0.7,0.1,1.1-0.3,1.7c-3.7,4.9-8.6,7.3-14.7,7.8c-3.4,0.3-6.7,0-9.9-1.4
			c-6.2-2.7-9.8-7.6-11.2-14.1c-1-4.9-0.5-9.6,1.9-14c2.8-5.1,7.2-8,12.7-9.3c4.6-1.1,9.1-0.9,13.4,1c2.9,1.3,5,3.3,5.9,6.5
			c0.9,3.4-0.2,6.8-2.9,8.5c-2.9,1.8-5.9,1.7-8.8,0.1c-1.9-1.1-2.6-3-2.8-5.2C63.2,43.9,63.6,42.1,65.1,40.5z"/>
		<path class="st3" d="M5,22.4c0-3.5,0-7,0-10.4C5,10,6.7,9,8.4,9.9c6.5,3.5,12.9,7.1,19.4,10.6c0.8,0.4,1.2,1,1.2,1.9
			c0,0.9-0.4,1.5-1.2,1.9c-6.5,3.5-13,7.1-19.5,10.6c-1.6,0.9-3.4-0.2-3.4-2C5,29.4,5,25.9,5,22.4z"/>
		<path class="st3" d="M17.3,44.6c0-2.8,0-5.7,0-8.5c0-1.9,1.4-2.8,3.1-1.8c5.3,2.9,10.6,5.8,15.9,8.7c0.7,0.4,1.2,0.9,1.2,1.7
			c0,0.8-0.5,1.3-1.2,1.7c-5.3,2.9-10.7,5.8-16,8.7c-1.6,0.9-3,0-3-1.8C17.3,50.3,17.3,47.4,17.3,44.6z"/>
		<path class="st3" d="M32,30.1c0-1.8,0-3.6,0-5.3c0-1.4,0.9-1.9,2.1-1.3c3.4,1.8,6.7,3.7,10.1,5.5c0.5,0.2,0.8,0.6,0.8,1.1
			c0,0.5-0.3,0.9-0.8,1.1c-3.4,1.8-6.8,3.7-10.2,5.5c-1.1,0.6-2,0.1-2-1.2C32,33.7,32,31.9,32,30.1z"/>
		<path class="st3" d="M293.8,36.9c-0.4,1.2-0.7,2.3-1,3.3c-0.1,0.4-0.3,0.5-0.7,0.5c-0.4,0-0.5-0.1-0.6-0.5c-0.3-1-0.6-2-1-3
			c-0.1,1-0.2,2-0.2,3c0,0.5-0.2,0.6-0.7,0.6c-0.5,0-0.3-0.4-0.3-0.6c0.1-1.2,0.2-2.3,0.2-3.5c0-0.4,0.1-0.6,0.6-0.6
			c0.8-0.1,1.1,0.2,1.2,0.9c0.2,0.8,0.5,1.5,0.8,2.3c0.3-1,0.7-1.9,1-2.9c0.2-0.7,0.8-0.3,1.2-0.3c0.4-0.1,0.3,0.3,0.3,0.5
			c0.1,1.2,0.2,2.5,0.3,3.7c0,0.3,0,0.5-0.4,0.4c-0.3,0-0.6,0.1-0.6-0.4C294,39.3,293.9,38.2,293.8,36.9z"/>
		<path class="st3" d="M287.1,36.1c0.5,0,1,0,1.5,0c0.3,0,0.5,0,0.5,0.4c0,0.4-0.2,0.4-0.5,0.4c-1,0-1,0-1,1.1c0,0.8,0,1.6,0,2.4
			c0,0.4-0.2,0.4-0.5,0.4c-0.3,0-0.5-0.1-0.5-0.4c0-1,0-1.9,0-2.9c0-0.5-0.2-0.7-0.7-0.6c-0.2,0-0.3,0-0.5,0c-0.3,0-0.3-0.2-0.3-0.4
			c0-0.3,0-0.4,0.4-0.4C286,36.1,286.5,36.1,287.1,36.1z"/>
		<path class="st3" d="M215.2,42.4c0,0.1,0,0.2,0,0.3C215.1,42.6,215.1,42.4,215.2,42.4C215.2,42.3,215.2,42.4,215.2,42.4z"/>
		<path class="st3" d="M213.5,66.2c0-0.1-0.1-0.2,0-0.3C213.5,66,213.5,66.1,213.5,66.2C213.5,66.2,213.5,66.2,213.5,66.2z"/>
	</g>
</g>
<g id="Layer_6" class="st1">
</g>
</svg>
