<?xml version="1.0" encoding="utf-8"?>
<!-- Svg Vector Icons : http://www.onlinewebfonts.com/icon -->
<!DOCTYPE svg PUBLIC "-//W3C//DTD SVG 1.1//EN" "http://www.w3.org/Graphics/SVG/1.1/DTD/svg11.dtd">
<svg version="1.1" xmlns="http://www.w3.org/2000/svg" xmlns:xlink="http://www.w3.org/1999/xlink" x="0px" y="0px" viewBox="0 0 1000 1000" enable-background="new 0 0 1000 1000" xml:space="preserve">
<metadata> Svg Vector Icons : http://www.onlinewebfonts.com/icon </metadata>
<g><g transform="translate(0.000000,460.000000) scale(0.100000,-0.100000)"><path d="M4482.1,4475.4c-1733.7-173.6-3295.9-1326.5-3983.8-2938C-305.3-346.3,129.7-2508.5,1599.8-3929.3c754.3-728.6,1647.9-1163.6,2732.3-1332.9c319.3-49.3,1022.2-49.3,1350.1,0c1080.1,162.9,2031.5,640.7,2785.8,1395.1c385.7,383.6,681.5,795,927.9,1287.9c227.2,456.4,385.7,964.3,467.2,1497.9c49.3,327.9,49.3,1030.8,0,1350.1c-107.1,687.9-312.9,1279.3-632.2,1815.1c-904.3,1517.2-2518,2432.3-4264.5,2415.1C4805.6,4496.8,4589.2,4486.1,4482.1,4475.4z M3682.7,2165.3c55.7-205.7,107.1-398.6,113.6-428.6c19.3-77.1,32.1-42.9,150,413.6l102.9,400.7h188.6c105,0,190.7-2.1,190.7-6.4c0-2.1-96.4-293.6-214.3-647.2l-214.3-642.9V810.9V365.2h-182.2h-182.1v435v432.9L3421.3,1876c-117.9,353.6-214.3,649.3-214.3,660c0,8.6,83.6,12.9,186.4,10.7l186.4-6.4L3682.7,2165.3z M5146.4,1974.6c105-47.1,195-147.9,225-255c17.1-51.4,21.4-257.2,17.1-582.9l-6.4-503.6l-57.9-100.7c-81.4-137.1-210-199.3-413.6-197.1c-222.9,2.1-355.7,79.3-428.6,250.7c-49.3,117.9-47.1,1101.5,2.1,1208.6c40.7,81.4,145.7,171.4,237.9,199.3C4831.3,2026,5054.2,2017.4,5146.4,1974.6z M5971.4,1331.7c0-533.6,4.3-645,32.1-666.5c36.4-30,94.3-15,169.3,45l55.7,42.9v610.7v608.6H6400h171.4v-803.6V365.2H6400h-171.4V438v75l-107.1-72.9c-182.2-122.2-347.2-124.3-437.2-4.3c-42.9,57.9-45,87.9-51.4,799.3l-6.4,737.2h171.4h173.6V1331.7z M6417.1-286.3c600-62.1,784.3-120,861.5-270c107.1-210,169.3-694.3,169.3-1317.9c0-649.3-64.3-1135.8-180-1332.9c-62.2-102.9-173.6-154.3-428.6-197.1c-737.2-126.4-2545.8-143.6-3448-32.1c-372.9,45-525,87.9-604.3,169.3c-152.1,150-231.4,621.5-231.4,1392.9c0,735,75,1215.1,214.3,1380.1C2877-365.6,3185.6-312,4149.9-247.7C4469.2-226.3,6108.5-256.3,6417.1-286.3z"/><path d="M4827.1,1702.4c-30-27.9-34.3-107.1-34.3-531.4c0-357.9,6.4-503.6,25.7-522.9c38.6-38.6,156.4-30,195,12.9c32.1,34.3,36.4,102.9,36.4,525c0,475.7,0,484.3-47.2,516.5C4940.6,1745.2,4869.9,1745.2,4827.1,1702.4z"/><path d="M3035.6-1017v-139.3h160.7H3357v-835.8v-835.8h160.7h160.7v835.8v835.8h160.7h160.7v139.3v139.3h-482.2h-482.2V-1017z"/><path d="M5178.5-1852.8v-975h139.3c137.1,0,139.3,0,139.3,60c0,32.1,8.6,47.1,17.1,34.3c32.1-51.4,169.3-115.7,244.3-115.7c107.1,0,173.6,34.3,222.9,113.6c36.4,62.2,40.7,113.6,40.7,604.3c0,475.7-4.3,544.3-38.6,615c-77.2,152.1-263.6,184.3-413.6,70.7l-72.8-55.7v310.7v312.9h-139.3h-139.3V-1852.8z M5652.1-1625.6c51.4-40.7,51.4-45,51.4-490.8c0-477.9-8.6-518.6-105-518.6c-25.7,0-68.6,15-94.3,34.3c-47.1,32.1-47.1,40.7-47.1,490.7s0,458.6,47.1,490.8C5566.4-1574.2,5592.1-1576.3,5652.1-1625.6z"/><path d="M6436.4-1374.9c-111.4-30-240-156.4-270-263.6c-30-111.4-30-831.5,0-942.9c51.4-182.1,190.7-287.1,383.6-289.3c270,0,428.6,158.6,428.6,435v79.3h-139.3c-132.9,0-139.3-2.1-139.3-51.4c0-169.3-64.3-248.6-180-218.6c-68.6,17.1-98.6,115.7-98.6,330v154.3H6700h278.6v231.4c-2.1,310.7-49.3,432.9-195,507.9C6704.3-1362,6532.9-1347,6436.4-1374.9z M6659.3-1640.6c15-19.3,32.1-90,36.4-160.7l8.6-126.4h-143.6h-143.6l8.6,126.4c10.7,150,40.7,195,135,195C6599.3-1606.3,6642.1-1621.3,6659.3-1640.6z"/><path d="M4154.2-2079.9l6.4-687.9l51.4-40.7c92.2-75,242.2-49.3,370.7,64.3c83.6,72.9,102.9,68.6,102.9-23.6c0-60,2.1-60,128.6-60h128.6v717.9v717.9h-128.6h-128.6v-542.2v-542.2l-57.9-55.7c-72.9-66.4-135-87.9-177.9-60c-27.9,17.1-32.1,113.6-38.6,610.7l-6.4,589.3h-128.6h-128.6L4154.2-2079.9z"/></g></g>
</svg>